<svg width="183" height="182" viewBox="0 0 183 182" fill="none" xmlns="http://www.w3.org/2000/svg">
<path d="M163.18 140.578C163.16 140.555 163.133 140.539 163.113 140.516L163.242 140.399L128.781 102.574L178.999 91.5917L178.994 91.5659C180.295 91.2412 181.418 90.4225 182.126 89.2834C182.833 88.1444 183.069 86.7746 182.783 85.4646C182.77 85.4041 182.742 85.3494 182.726 85.2881L182.758 85.282L176.72 57.6695L176.7 57.6738C176.385 56.3964 175.592 55.288 174.486 54.576C173.379 53.864 172.042 53.6022 170.749 53.8443L170.744 53.8266L120.433 64.8385L136.084 15.6889L136.06 15.6812C136.428 14.3936 136.28 13.0132 135.648 11.8325C135.016 10.6518 133.95 9.76356 132.674 9.35587C132.613 9.33645 132.552 9.33322 132.49 9.31624L132.5 9.28453L105.571 0.708827L105.565 0.725902C104.301 0.360514 102.945 0.49276 101.775 1.0955C100.606 1.69825 99.7111 2.72578 99.2751 3.96725L99.2605 3.96259L83.6354 53.0292L48.8957 14.8983L48.8733 14.9181C47.943 13.9537 46.6734 13.39 45.3341 13.3468C43.9949 13.3036 42.6915 13.7843 41.701 14.6867C41.6554 14.7286 41.6229 14.78 41.5774 14.8219L41.5576 14.7995L20.665 33.8363L20.6749 33.8475C18.7056 35.7459 18.5578 38.8422 20.3361 40.9184L20.3289 40.9242L20.3988 41.0001L20.4292 41.0394L20.4669 41.0729L55.1294 79.1174L5.95561 89.8735C5.55977 89.8639 5.16413 89.9002 4.77665 89.9817C3.44621 90.2723 2.28489 91.0778 1.54647 92.222C0.808052 93.3662 0.552571 94.7562 0.835854 96.0883L0.815673 96.0926L7.06259 124.658L7.1554 124.637C7.61362 125.76 8.45301 126.685 9.52602 127.251C10.599 127.816 11.837 127.985 13.0222 127.728C13.0537 127.721 13.0802 127.706 13.1117 127.7L13.1462 127.861L63.3033 116.894L48.0838 164.687C47.876 165.027 47.7084 165.389 47.5842 165.767C46.7235 168.47 48.2099 171.353 50.8984 172.233L50.8929 172.25L78.7547 181.123L78.7834 181.033C79.985 181.199 81.2067 180.936 82.2333 180.289C83.2599 179.643 84.0255 178.655 84.3951 177.5C84.4044 177.471 84.4056 177.441 84.4125 177.411L84.5735 177.463L100.153 128.54L133.931 165.615C134.123 165.958 134.342 166.289 134.617 166.591C135.534 167.597 136.811 168.2 138.171 168.269C139.53 168.337 140.862 167.866 141.875 166.957L141.885 166.969L162.831 147.882L162.842 147.874L162.85 147.866L163.504 147.271L163.445 147.204C164.186 146.244 164.565 145.054 164.517 143.843C164.468 142.631 163.995 141.475 163.18 140.578V140.578Z" fill="#E5E3E6"/>
</svg>
